<?xml version="1.0" standalone="no"?>
<!DOCTYPE svg PUBLIC "-//W3C//DTD SVG 20010904//EN"
 "http://www.w3.org/TR/2001/REC-SVG-20010904/DTD/svg10.dtd">
<svg version="1.0" xmlns="http://www.w3.org/2000/svg"
 width="275.000000pt" height="144.000000pt" viewBox="0 0 275.000000 144.000000"
 preserveAspectRatio="xMidYMid meet">

<g transform="translate(0.000000,144.000000) scale(0.100000,-0.100000)"
fill="#000000" stroke="none">
<path d="M1200 1105 l0 -125 86 0 c64 0 85 3 82 13 -3 7 -29 13 -71 15 l-67 3
0 109 c0 91 -3 110 -15 110 -13 0 -15 -21 -15 -125z"/>
<path d="M1440 1147 c-62 -31 -66 -121 -7 -158 21 -13 41 -18 57 -14 14 4 37
7 53 6 15 0 28 5 29 12 11 85 -2 131 -42 152 -35 18 -57 19 -90 2z m78 -33
c33 -23 30 -78 -4 -101 -24 -15 -29 -15 -53 -2 -14 8 -30 27 -35 42 -8 22 -6
31 14 52 27 29 47 31 78 9z"/>
<path d="M1230 907 c-38 -19 -40 -77 -4 -106 15 -11 37 -21 50 -21 13 0 33 -9
45 -21 18 -18 19 -23 6 -42 -20 -30 -63 -33 -99 -7 -33 24 -43 22 -34 -8 8
-25 47 -42 96 -42 30 0 43 6 59 26 43 54 23 95 -59 121 -57 19 -73 40 -50 68
17 21 53 19 83 -5 26 -21 42 -14 31 13 -12 33 -80 46 -124 24z"/>
<path d="M1425 815 c-27 -26 -32 -68 -14 -108 19 -41 86 -60 130 -37 34 18 21
29 -32 27 -43 -2 -53 1 -66 21 l-15 22 71 0 c68 0 71 1 71 24 0 13 -9 35 -21
50 -28 36 -89 37 -124 1z m105 -25 c10 -19 8 -20 -46 -20 -56 0 -57 0 -39 20
10 11 31 20 46 20 18 0 32 -7 39 -20z"/>
<path d="M1607 834 c-1 -1 -1 -41 1 -89 3 -60 7 -85 15 -82 7 2 13 29 15 62 4
67 12 82 49 87 15 2 28 9 31 16 3 9 -11 12 -53 10 -31 -1 -57 -3 -58 -4z"/>
<path d="M1763 825 c-24 -17 -39 -71 -28 -104 16 -52 85 -78 136 -51 35 19 22
32 -26 24 -36 -5 -50 -3 -65 11 -11 10 -20 22 -20 27 0 4 32 8 70 8 67 0 70 1
70 24 0 13 -9 35 -21 50 -24 30 -81 36 -116 11z m97 -35 c10 -19 8 -20 -46
-20 -56 0 -57 0 -39 20 10 11 31 20 46 20 18 0 32 -7 39 -20z"/>
<path d="M1940 747 c0 -66 3 -88 13 -85 7 3 13 28 15 63 4 68 14 85 52 85 38
0 48 -17 52 -85 2 -35 8 -60 16 -63 9 -3 12 15 12 67 0 95 -16 112 -100 109
l-60 -2 0 -89z"/>
<path d="M2165 808 c-34 -40 -29 -91 11 -126 22 -19 35 -22 87 -19 l62 4 0 61
c0 79 -27 112 -91 112 -35 0 -47 -5 -69 -32z m123 -30 c24 -51 -16 -98 -72
-84 -26 6 -48 48 -39 73 12 35 26 44 62 41 27 -2 39 -9 49 -30z"/>
<path d="M1210 469 c0 -77 4 -118 10 -114 6 3 10 26 10 51 0 41 2 44 28 44 22
0 33 -10 57 -50 16 -28 33 -50 37 -50 13 0 10 8 -18 56 l-27 45 22 15 c15 11
21 26 21 53 0 52 -23 71 -88 71 l-52 0 0 -121z m90 101 c60 -32 39 -100 -30
-100 l-40 0 0 55 c0 52 1 55 26 55 14 0 34 -5 44 -10z"/>
<path d="M2500 470 c0 -73 4 -120 10 -120 6 0 10 28 10 63 0 71 10 87 55 87
47 0 65 -26 65 -94 0 -36 4 -55 10 -51 14 9 12 95 -3 125 -17 33 -59 47 -97
33 l-30 -11 0 44 c0 24 -4 44 -10 44 -6 0 -10 -47 -10 -120z"/>
<path d="M1420 500 c-58 -58 -19 -150 64 -150 12 0 31 7 42 15 17 13 14 14
-32 8 -46 -5 -53 -3 -68 18 -9 13 -16 27 -16 31 0 5 32 8 70 8 62 0 70 2 70
19 0 10 -9 30 -21 45 -26 33 -79 36 -109 6z m98 -12 c6 -6 12 -19 12 -29 0
-16 -8 -19 -54 -19 -30 0 -58 4 -61 10 -3 5 5 21 20 36 26 25 52 26 83 2z"/>
<path d="M1610 506 c-6 -8 -10 -25 -8 -38 2 -17 14 -25 51 -36 41 -11 48 -17
45 -35 -2 -17 -11 -23 -36 -25 -18 -2 -40 2 -48 9 -8 6 -18 9 -22 5 -11 -12
29 -36 61 -36 41 0 67 17 67 44 0 28 -15 41 -57 50 -34 8 -58 29 -49 44 10 17
44 20 70 7 14 -8 28 -10 31 -5 16 26 -84 41 -105 16z"/>
<path d="M1793 505 c-44 -31 -35 -131 12 -149 34 -13 95 -4 95 14 0 5 -18 6
-40 3 -30 -4 -45 -1 -60 12 -38 34 -26 45 50 45 64 0 70 2 70 20 0 30 -44 70
-77 70 -16 0 -38 -7 -50 -15z m95 -23 c20 -26 9 -37 -43 -40 -64 -4 -79 12
-42 44 31 27 62 25 85 -4z"/>
<path d="M1989 510 c-23 -14 -42 -65 -35 -95 14 -55 78 -82 121 -51 17 12 21
12 32 -3 10 -13 12 -6 13 47 0 54 -4 66 -25 87 -25 26 -75 33 -106 15z m93
-27 c22 -20 23 -70 1 -95 -23 -26 -78 -24 -97 4 -34 49 -8 108 47 108 17 0 39
-7 49 -17z"/>
<path d="M2182 435 c1 -85 1 -87 7 -29 7 68 22 94 57 94 12 0 26 5 29 10 9 15
-49 12 -63 -2 -10 -10 -15 -10 -22 2 -7 10 -9 -15 -8 -75z"/>
<path d="M2333 505 c-42 -30 -39 -108 6 -142 17 -13 60 -17 85 -7 31 12 16 22
-24 17 -51 -7 -80 16 -80 62 0 52 49 83 95 59 38 -19 44 -17 16 6 -28 24 -68
26 -98 5z"/>
</g>
</svg>
